<?xml version="1.0" encoding="UTF-8" standalone="no"?>
<svg
   viewBox="0 0 210 297"
   version="1.1"
   id="svg1"
   xml:space="preserve"
   sodipodi:docname="driftwood-white.svg"
   inkscape:version="1.3.2 (091e20e, 2023-11-25)"
   xmlns:inkscape="http://www.inkscape.org/namespaces/inkscape"
   xmlns:sodipodi="http://sodipodi.sourceforge.net/DTD/sodipodi-0.dtd"
   xmlns="http://www.w3.org/2000/svg"
   xmlns:svg="http://www.w3.org/2000/svg"><sodipodi:namedview
   id="namedview1"
   pagecolor="#505050"
   bordercolor="#eeeeee"
   borderopacity="1"
   inkscape:showpageshadow="0"
   inkscape:pageopacity="0"
   inkscape:pagecheckerboard="0"
   inkscape:deskcolor="#505050"
   inkscape:zoom="0.79461279"
   inkscape:cx="105.08263"
   inkscape:cy="148.5"
   inkscape:window-width="1312"
   inkscape:window-height="411"
   inkscape:window-x="0"
   inkscape:window-y="25"
   inkscape:window-maximized="0"
   inkscape:current-layer="layer1" />
  <defs
   id="defs1" />
  <g
   id="layer1">
    
    <path
   d="m 95.076367,151.26725 a 38.252323,38.252323 0 0 1 -10.660331,-23.39754 62.52475,62.52475 0 0 0 -16.097725,-2.14818 62.52475,62.52475 0 0 0 -26.339478,6.08128 62.52475,62.52475 0 0 1 4.536157,23.35206 62.52475,62.52475 0 0 1 -2.465482,16.51424 62.52475,62.52475 0 0 1 46.246789,-20.68504 62.52475,62.52475 0 0 1 4.78007,0.28318 z"
   style="fill:#dbdbdb;fill-opacity:1;stroke-width:5.66983;stroke-linecap:square;stroke-linejoin:round;paint-order:stroke fill markers"
   id="path21" />
    <path
   d="m 101.99377,135.7142 a 38.252323,38.252323 0 0 0 2.9931,1.89962 62.52475,62.52475 0 0 0 -2.9931,-1.89962 z"
   style="fill:#502b19;fill-opacity:0.433628;stroke-width:5.66983;stroke-linecap:square;stroke-linejoin:round;paint-order:stroke fill markers"
   id="path18" />
    <path
   d="m 125.34377,162.57096 a 26.929638,26.929638 0 0 1 -0.48834,-4.97128 26.929638,26.929638 0 0 1 4.41058,-14.61099 38.252323,38.252323 0 0 1 -4.43384,0.34468 38.252323,38.252323 0 0 1 -19.8453,-5.71955 62.52475,62.52475 0 0 1 19.77761,23.75979 62.52475,62.52475 0 0 0 -29.688113,-10.10636 38.252323,38.252323 0 0 0 27.331153,11.5347 38.252323,38.252323 0 0 0 2.93625,-0.23099 z"
   style="fill:#888888;fill-opacity:1;stroke-width:5.26315;stroke-linecap:square;stroke-linejoin:round;paint-order:stroke fill markers"
   id="path30" />
    <path
   d="m 101.99377,135.7142 a 62.52475,62.52475 0 0 0 -17.577734,-7.84449 38.252323,38.252323 0 0 0 10.660331,23.39754 62.52475,62.52475 0 0 1 29.688113,10.10636 62.52475,62.52475 0 0 0 -19.77761,-23.75979 38.252323,38.252323 0 0 1 -2.9931,-1.89962 z"
   style="fill:#9c9c9c;fill-opacity:1;stroke-width:5.26315;stroke-linecap:square;stroke-linejoin:round;paint-order:stroke fill markers"
   id="path19" />
    <path
   d="m 129.26601,142.98869 a 38.252323,38.252323 0 0 0 23.70398,-12.28142 26.929638,26.929638 0 0 0 -1.18494,-0.0372 26.929638,26.929638 0 0 0 -22.51904,12.31863 z"
   style="fill:#8c8c8c;fill-opacity:1;stroke-width:4.79999;stroke-linecap:square;stroke-linejoin:round;paint-order:stroke fill markers"
   id="path31" />
    <path
   d="m 159.85743,131.91546 a 26.929638,26.929638 0 0 0 -6.88744,-1.20819 38.252323,38.252323 0 0 1 -23.70398,12.28142 26.929638,26.929638 0 0 0 -4.41058,14.61099 26.929638,26.929638 0 0 0 0.48834,4.97128 38.252323,38.252323 0 0 0 27.33787,-14.74949 26.929638,26.929638 0 0 1 1.00097,-1.32292 38.252323,38.252323 0 0 0 6.17482,-14.58309 z"
   style="fill:#b5b5b5;fill-opacity:1;stroke-width:4.79999;stroke-linecap:square;stroke-linejoin:round;paint-order:stroke fill markers"
   id="path25" />
    <path
   d="m 159.85743,131.91546 a 38.252323,38.252323 0 0 1 -6.17482,14.58309 26.929638,26.929638 0 0 1 16.01608,-8.98911 26.929638,26.929638 0 0 0 -9.84126,-5.59398 z"
   style="fill:#535353;fill-opacity:1;stroke-width:4.79999;stroke-linecap:square;stroke-linejoin:round;paint-order:stroke fill markers"
   id="path24" />
    <path
   d="m 153.68261,146.49855 a 26.929638,26.929638 0 0 0 -1.00097,1.32292 38.252323,38.252323 0 0 0 1.00097,-1.32292 z"
   style="fill:#b2a29a;fill-opacity:0.501475;stroke-width:4.79999;stroke-linecap:square;stroke-linejoin:round;paint-order:stroke fill markers"
   id="path27" />
  </g>
</svg>
